<?xml version="1.0" encoding="utf-8"?>
<!-- Generator: Adobe Illustrator 24.1.2, SVG Export Plug-In . SVG Version: 6.00 Build 0)  -->
<svg version="1.1" id="Layer_1" xmlns="http://www.w3.org/2000/svg" xmlns:xlink="http://www.w3.org/1999/xlink" x="0px" y="0px"
	 viewBox="0 0 511 511" style="enable-background:new 0 0 511 511;" xml:space="preserve">
<g>
	<path d="M492.5,222.8C492.5,222.8,492.5,222.8,492.5,222.8L288.1,18.3c-8.7-8.7-20.3-13.5-32.6-13.5c-12.3,0-23.9,4.8-32.6,13.5
		L18.6,222.6c-0.1,0.1-0.1,0.1-0.2,0.2c-17.9,18-17.9,47.2,0.1,65.2c8.2,8.2,19,13,30.6,13.5c0.5,0,0.9,0.1,1.4,0.1h8.1V452
		c0,29.8,24.2,54,54,54h80c8.1,0,14.7-6.6,14.7-14.7v-118c0-13.6,11.1-24.6,24.6-24.6h47.2c13.6,0,24.6,11.1,24.6,24.6v118
		c0,8.1,6.6,14.7,14.7,14.7h80c29.8,0,54-24.2,54-54V301.5h7.6c12.3,0,23.9-4.8,32.6-13.5C510.5,270,510.5,240.8,492.5,222.8z
		 M471.7,267.2c-3.2,3.2-7.4,4.9-11.9,4.9h-22.2c-8.1,0-14.7,6.6-14.7,14.7V452c0,13.6-11,24.6-24.6,24.6h-65.3V373.3
		c0-29.8-24.2-54-54-54h-47.2c-29.8,0-54,24.2-54,54v103.3h-65.3C99.1,476.6,88,465.6,88,452V286.9c0-8.1-6.6-14.7-14.7-14.7H51.5
		c-0.2,0-0.5,0-0.7,0c-4.4-0.1-8.5-1.8-11.5-4.9c-6.5-6.5-6.5-17.2,0-23.7c0,0,0,0,0,0l0,0L243.6,39.1c3.2-3.2,7.4-4.9,11.9-4.9
		c4.5,0,8.7,1.7,11.9,4.9l204.3,204.4c0,0,0.1,0.1,0.1,0.1C478.3,250.1,478.3,260.7,471.7,267.2z"/>
	<path d="M255.5,4.8c12.3,0,23.9,4.8,32.6,13.5l204.4,204.4c0,0,0,0,0,0c17.9,18,17.9,47.2,0,65.2c-8.7,8.7-20.3,13.5-32.6,13.5
		h-7.6V452c0,29.8-24.2,54-54,54h-80c-8.1,0-14.7-6.6-14.7-14.7v-118c0-13.6-11-24.6-24.6-24.6h-47.2c-13.6,0-24.6,11.1-24.6,24.6
		v118c0,8.1-6.6,14.7-14.7,14.7h-80c-29.8,0-54-24.2-54-54V301.5h-8.1c-0.5,0-1,0-1.4-0.1c-11.6-0.5-22.4-5.3-30.6-13.5
		c-17.9-18-18-47.2-0.1-65.2c0.1-0.1,0.1-0.1,0.2-0.2L222.9,18.3C231.6,9.6,243.2,4.8,255.5,4.8 M51.5,272.2h21.9
		c8.1,0,14.7,6.6,14.7,14.7V452c0,13.6,11.1,24.6,24.6,24.6h65.3V373.3c0-29.8,24.2-54,54-54h47.2c29.8,0,54,24.2,54,54v103.3h65.3
		c13.6,0,24.6-11.1,24.6-24.6V286.9c0-8.1,6.6-14.7,14.7-14.7h22.2c4.5,0,8.7-1.7,11.9-4.9c6.5-6.5,6.5-17.1,0-23.7
		c0,0-0.1-0.1-0.1-0.1L267.4,39.1c-3.2-3.2-7.4-4.9-11.9-4.9c-4.5,0-8.7,1.7-11.9,4.9L39.3,243.5l0,0c0,0,0,0,0,0
		c-6.5,6.5-6.5,17.2,0,23.7c3.1,3.1,7.2,4.8,11.5,4.9C51,272.1,51.3,272.2,51.5,272.2 M255.5-0.2c-13.7,0-26.5,5.3-36.2,15
		L15.1,219.1c-0.1,0.1-0.2,0.2-0.3,0.3c-19.8,19.9-19.7,52.3,0.1,72.2c9,9,21,14.3,33.8,14.9c0.6,0.1,1.2,0.1,1.8,0.1h3.1V452
		c0,32.5,26.5,59,59,59h80c10.9,0,19.7-8.8,19.7-19.7v-118c0-10.8,8.8-19.6,19.6-19.6h47.2c10.8,0,19.6,8.8,19.6,19.6v118
		c0,10.9,8.8,19.7,19.7,19.7h80c32.5,0,59-26.5,59-59V306.6h2.5c13.7,0,26.5-5.3,36.2-15c19.9-19.9,19.9-52.4,0-72.3l-0.3-0.3l0,0
		L291.7,14.8C282,5.1,269.2-0.2,255.5-0.2L255.5-0.2z M43.2,246.6l204-204c2.2-2.2,5.2-3.4,8.3-3.4c3.1,0,6.1,1.2,8.3,3.4L468.1,247
		c0,0,0.1,0.1,0.1,0.1c4.5,4.6,4.5,12-0.1,16.6c-2.2,2.2-5.2,3.4-8.3,3.4h-22.2c-10.9,0-19.7,8.8-19.7,19.7V452
		c0,10.8-8.8,19.6-19.6,19.6h-60.3v-98.3c0-32.5-26.5-59-59-59h-47.2c-32.5,0-59,26.5-59,59v98.3h-60.3c-10.8,0-19.6-8.8-19.6-19.6
		V286.9c0-10.9-8.8-19.7-19.7-19.7H51.6c-0.3,0-0.5,0-0.8,0c-3.1-0.1-5.9-1.3-8.1-3.4c-4.1-4.1-4.5-10.6-1.2-15.2h0.5L43.2,246.6
		L43.2,246.6z"/>
</g>
</svg>
