<?xml version="1.0" encoding="utf-8"?>
<!-- Generator: Adobe Illustrator 24.1.2, SVG Export Plug-In . SVG Version: 6.00 Build 0)  -->
<svg version="1.1" id="Layer_1" xmlns="http://www.w3.org/2000/svg" xmlns:xlink="http://www.w3.org/1999/xlink" x="0px" y="0px"
	 viewBox="0 0 511 511" style="enable-background:new 0 0 511 511;" xml:space="preserve">
<style type="text/css">
	.st0{fill:#343940;}
</style>
<path class="st0" d="M496.1,219.3l-0.3-0.3L291.7,14.8c-9.7-9.7-22.5-15-36.2-15s-26.5,5.3-36.2,15L15.1,219.1
	c-0.1,0.1-0.2,0.2-0.3,0.3c-19.8,19.9-19.7,52.3,0.1,72.2c9,9,21,14.3,33.8,14.9c0.6,0.1,1.2,0.1,1.8,0.1h3.1V452
	c0,32.5,26.5,59,59,59h80c10.9,0,19.7-8.8,19.7-19.7v-118c0-10.8,8.8-19.6,19.6-19.6h47.2c10.8,0,19.6,8.8,19.6,19.6v118
	c0,10.9,8.8,19.7,19.7,19.7h80c32.5,0,59-26.5,59-59V306.6h2.5c13.7,0,26.5-5.3,36.2-15C516,271.7,516,239.2,496.1,219.3z
	 M279,314.3h-47.2c-32.5,0-59,26.5-59,59v98.3h-60.3c-10.8,0-19.6-8.8-19.6-19.6V286.9c0-10.9-8.8-19.7-19.7-19.7H51.6
	c-0.3,0-0.5,0-0.8,0c-3.1-0.1-5.9-1.3-8.1-3.4c-4.1-4.1-4.5-10.6-1.2-15.2H42l1.2-2l204-204c2.2-2.2,5.2-3.4,8.3-3.4
	c3.1,0,6.1,1.2,8.3,3.4L468.1,247l0.1,0.1c4.5,4.6,4.5,12-0.1,16.6c-2.2,2.2-5.2,3.4-8.3,3.4h-22.2c-10.9,0-19.7,8.8-19.7,19.7V452
	c0,10.8-8.8,19.6-19.6,19.6H338v-98.3C338,340.8,311.5,314.3,279,314.3z"/>
</svg>
