<?xml version="1.0" encoding="utf-8"?>
<!-- Generator: Adobe Illustrator 24.1.1, SVG Export Plug-In . SVG Version: 6.00 Build 0)  -->
<svg version="1.1" id="Layer_1" xmlns="http://www.w3.org/2000/svg" xmlns:xlink="http://www.w3.org/1999/xlink" x="0px" y="0px"
	 viewBox="0 0 335.3 246.6" style="enable-background:new 0 0 335.3 246.6;" xml:space="preserve">
<style type="text/css">
	.st0{fill:#DC3545;}
</style>
<g>
	<path class="st0" d="M123.2,246.5C55.3,246.5,0,191.2,0,123.3S55.3,0.1,123.2,0.1c67.9,0,123.2,55.3,123.2,123.2
		S191.1,246.5,123.2,246.5z M123.2,20.1C66.3,20.1,20,66.4,20,123.3c0,56.9,46.3,103.2,103.2,103.2s103.2-46.3,103.2-103.2
		C226.4,66.4,180.1,20.1,123.2,20.1z"/>
</g>
<path class="st0" d="M163.5,150.4l-2.1,2.2c-6.9,7.1-15.1,11-25.2,11.7l19.2-75.5c2.3,1.6,4.3,3.3,6,5l2.1,2.2l11.3-11.3l-1.9-2.1
	c-3.7-4.2-8.2-7.6-13.4-10.2l6-23.7h-13.4l-4.8,19.2c-2.8-0.7-5.8-1.2-9-1.6l4.5-17.7h-13.4L125,66.4c-9.5,0.9-18.1,3.7-25.8,8.4
	c-8.3,5.1-14.8,11.9-19.5,20.3c-4.6,8.4-7,17.9-7,28.2c0,10.5,2.5,20.2,7.3,28.8c4.5,7.9,10.6,14.3,18.3,19.1L91.5,198h13.4
	l5.4-20.9c2.7,0.9,5.6,1.7,8.7,2.3l-4.7,18.6h13.4l4.4-17.4c8.1-0.1,15.7-1.5,22.6-4.3c7.1-2.8,13.3-7,18.2-12.4l1.9-2.1
	L163.5,150.4z M120.6,83.4l-17.8,70.2c-3.5-3.2-6.3-7.1-8.5-11.4c-2.9-5.7-4.4-12.1-4.4-18.9c0-7,1.5-13.5,4.5-19.3
	c3-5.8,7.2-10.6,12.6-14.4C111,86.7,115.6,84.6,120.6,83.4z M143.3,83.4L123,163.6c-3.2-0.6-6.1-1.5-8.7-2.7l20-78.8
	C137.4,82.3,140.4,82.7,143.3,83.4z"/>
<path class="st0" d="M284.2,10.3v202.9l-15.6-15.6c-3.8-3.8-9.8-3.8-13.5,0c-3.7,3.8-3.8,9.8,0,13.5l31.9,31.9
	c3.8,3.8,9.8,3.8,13.5,0l0,0l31.9-31.9c3.8-3.8,3.8-9.8,0-13.5c-3.8-3.7-9.8-3.8-13.5,0l-15.6,15.6V10.3c0-5.3-4.3-9.6-9.6-9.6
	C288.5,0.7,284.2,5,284.2,10.3z"/>
</svg>
