<?xml version="1.0" encoding="utf-8"?>
<!-- Generator: Adobe Illustrator 24.1.2, SVG Export Plug-In . SVG Version: 6.00 Build 0)  -->
<svg version="1.1" id="Capa_1" xmlns="http://www.w3.org/2000/svg" xmlns:xlink="http://www.w3.org/1999/xlink" x="0px" y="0px"
	 viewBox="0 0 477.9 477.9" style="enable-background:new 0 0 477.9 477.9;" xml:space="preserve">
<style type="text/css">
	.st0{fill:#343940;}
</style>
<g>
	<g>
		<path class="st0" d="M119.5,187.7H17.1c-9.4,0-17.1,7.6-17.1,17.1v256c0,9.4,7.6,17.1,17.1,17.1h102.4c9.4,0,17.1-7.6,17.1-17.1
			v-256C136.5,195.4,128.9,187.7,119.5,187.7z M102.4,443.7H34.1V221.9h68.3V443.7z"/>
	</g>
</g>
<g>
	<g>
		<path class="st0" d="M290.1,0H187.7c-9.4,0-17.1,7.6-17.1,17.1v443.7c0,9.4,7.6,17.1,17.1,17.1h102.4c9.4,0,17.1-7.6,17.1-17.1
			V17.1C307.2,7.6,299.6,0,290.1,0z M273.1,443.7h-68.3V34.1h68.3L273.1,443.7L273.1,443.7z"/>
	</g>
</g>
<g>
	<g>
		<path class="st0" d="M460.8,136.5H358.4c-9.4,0-17.1,7.6-17.1,17.1v307.2c0,9.4,7.6,17.1,17.1,17.1h102.4
			c9.4,0,17.1-7.6,17.1-17.1V153.6C477.9,144.2,470.2,136.5,460.8,136.5z M443.7,443.7h-68.3V170.7h68.3V443.7z"/>
	</g>
</g>
</svg>
